  0
SECTION
  2
HEADER
  9
$ACADVER
  1
AC1009
  9
$FILLMODE
 70
 0
  9
$SPLFRAME
 70
 1
  9
$EXTMIN
 10
0
 20
0
 30
0.0
  9
$EXTMAX
 10
1058.33
 20
1058.33
 30
0.0
  0
ENDSEC
  0
SECTION
  2
TABLES
  0
TABLE
  2
LAYER
 70
1
  0
LAYER
  2
0
 70
     0
 62
     7
  6
CONTINUOUS
  0
ENDTAB
  0
ENDSEC
  0
SECTION
  2
ENTITIES
  0
LINE
  8
0
 62
     0
 10
0.0950846
 20
121.26
 30
0.0
 11
300.133
 21
121.26
 31
0.0
  0
LINE
  8
0
 62
     0
 10
300.133
 20
121.26
 30
0.0
 11
300.133
 21
0.290766
 31
0.0
  0
LINE
  8
0
 62
     0
 10
300.133
 20
0.290766
 30
0.0
 11
0.0950846
 21
0.290766
 31
0.0
  0
LINE
  8
0
 62
     0
 10
0.0950846
 20
0.290766
 30
0.0
 11
0.0950846
 21
121.26
 31
0.0
  0
LINE
  8
0
 62
     0
 10
90.3898
 20
19.9512
 30
0.0
 11
89.6179
 21
20.1579
 31
0.0
  0
LINE
  8
0
 62
     0
 10
89.6179
 20
20.1579
 30
0.0
 11
86.3053
 21
7.7942
 31
0.0
  0
LINE
  8
0
 62
     0
 10
86.3053
 20
7.7942
 30
0.0
 11
87.0768
 21
7.58747
 31
0.0
  0
LINE
  8
0
 62
     0
 10
87.0768
 20
7.58747
 30
0.0
 11
86.9213
 21
7.00871
 31
0.0
  0
LINE
  8
0
 62
     0
 10
86.9213
 20
7.00871
 30
0.0
 11
100.444
 21
3.38446
 31
0.0
  0
LINE
  8
0
 62
     0
 10
100.444
 20
3.38446
 30
0.0
 11
100.6
 21
3.96462
 31
0.0
  0
LINE
  8
0
 62
     0
 10
100.6
 20
3.96462
 30
0.0
 11
101.372
 21
3.75652
 31
0.0
  0
LINE
  8
0
 62
     0
 10
101.372
 20
3.75652
 30
0.0
 11
104.685
 21
16.1217
 31
0.0
  0
LINE
  8
0
 62
     0
 10
104.685
 20
16.1217
 30
0.0
 11
103.912
 21
16.3284
 31
0.0
  0
LINE
  8
0
 62
     0
 10
103.912
 20
16.3284
 30
0.0
 11
104.068
 21
16.9072
 31
0.0
  0
LINE
  8
0
 62
     0
 10
104.068
 20
16.9072
 30
0.0
 11
90.5454
 21
20.5314
 31
0.0
  0
LINE
  8
0
 62
     0
 10
90.5454
 20
20.5314
 30
0.0
 11
90.3898
 21
19.9512
 31
0.0
  0
LINE
  8
0
 62
     0
 10
196.157
 20
16.9072
 30
0.0
 11
196.313
 21
16.3284
 31
0.0
  0
LINE
  8
0
 62
     0
 10
196.313
 20
16.3284
 30
0.0
 11
195.541
 21
16.1217
 31
0.0
  0
LINE
  8
0
 62
     0
 10
195.541
 20
16.1217
 30
0.0
 11
198.852
 21
3.75652
 31
0.0
  0
LINE
  8
0
 62
     0
 10
198.852
 20
3.75652
 30
0.0
 11
199.625
 21
3.96462
 31
0.0
  0
LINE
  8
0
 62
     0
 10
199.625
 20
3.96462
 30
0.0
 11
199.781
 21
3.38446
 31
0.0
  0
LINE
  8
0
 62
     0
 10
199.781
 20
3.38446
 30
0.0
 11
213.304
 21
7.00871
 31
0.0
  0
LINE
  8
0
 62
     0
 10
213.304
 20
7.00871
 30
0.0
 11
213.148
 21
7.58747
 31
0.0
  0
LINE
  8
0
 62
     0
 10
213.148
 20
7.58747
 30
0.0
 11
213.921
 21
7.7942
 31
0.0
  0
LINE
  8
0
 62
     0
 10
213.921
 20
7.7942
 30
0.0
 11
210.608
 21
20.1579
 31
0.0
  0
LINE
  8
0
 62
     0
 10
210.608
 20
20.1579
 30
0.0
 11
209.835
 21
19.9512
 31
0.0
  0
LINE
  8
0
 62
     0
 10
209.835
 20
19.9512
 30
0.0
 11
209.681
 21
20.5314
 31
0.0
  0
LINE
  8
0
 62
     0
 10
209.681
 20
20.5314
 30
0.0
 11
196.157
 21
16.9072
 31
0.0
  0
LINE
  8
0
 62
     0
 10
111.256
 20
24.2204
 30
0.0
 11
110.483
 21
24.4285
 31
0.0
  0
LINE
  8
0
 62
     0
 10
110.483
 20
24.4285
 30
0.0
 11
107.17
 21
12.0647
 31
0.0
  0
LINE
  8
0
 62
     0
 10
107.17
 20
12.0647
 30
0.0
 11
107.943
 21
11.8567
 31
0.0
  0
LINE
  8
0
 62
     0
 10
107.943
 20
11.8567
 30
0.0
 11
107.787
 21
11.2779
 31
0.0
  0
LINE
  8
0
 62
     0
 10
107.787
 20
11.2779
 30
0.0
 11
121.31
 21
7.65362
 31
0.0
  0
LINE
  8
0
 62
     0
 10
121.31
 20
7.65362
 30
0.0
 11
121.467
 21
8.23376
 31
0.0
  0
LINE
  8
0
 62
     0
 10
121.467
 20
8.23376
 30
0.0
 11
122.239
 21
8.02707
 31
0.0
  0
LINE
  8
0
 62
     0
 10
122.239
 20
8.02707
 30
0.0
 11
125.552
 21
20.3908
 31
0.0
  0
LINE
  8
0
 62
     0
 10
125.552
 20
20.3908
 30
0.0
 11
124.779
 21
20.5975
 31
0.0
  0
LINE
  8
0
 62
     0
 10
124.779
 20
20.5975
 30
0.0
 11
124.934
 21
21.1777
 31
0.0
  0
LINE
  8
0
 62
     0
 10
124.934
 20
21.1777
 30
0.0
 11
111.412
 21
24.8006
 31
0.0
  0
LINE
  8
0
 62
     0
 10
111.412
 20
24.8006
 30
0.0
 11
111.256
 21
24.2204
 31
0.0
  0
LINE
  8
0
 62
     0
 10
175.292
 20
21.1777
 30
0.0
 11
175.446
 21
20.5975
 31
0.0
  0
LINE
  8
0
 62
     0
 10
175.446
 20
20.5975
 30
0.0
 11
174.673
 21
20.3908
 31
0.0
  0
LINE
  8
0
 62
     0
 10
174.673
 20
20.3908
 30
0.0
 11
177.986
 21
8.02707
 31
0.0
  0
LINE
  8
0
 62
     0
 10
177.986
 20
8.02707
 30
0.0
 11
178.759
 21
8.23376
 31
0.0
  0
LINE
  8
0
 62
     0
 10
178.759
 20
8.23376
 30
0.0
 11
178.915
 21
7.65362
 31
0.0
  0
LINE
  8
0
 62
     0
 10
178.915
 20
7.65362
 30
0.0
 11
192.437
 21
11.2779
 31
0.0
  0
LINE
  8
0
 62
     0
 10
192.437
 20
11.2779
 30
0.0
 11
192.282
 21
11.8567
 31
0.0
  0
LINE
  8
0
 62
     0
 10
192.282
 20
11.8567
 30
0.0
 11
193.055
 21
12.0647
 31
0.0
  0
LINE
  8
0
 62
     0
 10
193.055
 20
12.0647
 30
0.0
 11
189.742
 21
24.4285
 31
0.0
  0
LINE
  8
0
 62
     0
 10
189.742
 20
24.4285
 30
0.0
 11
188.969
 21
24.2204
 31
0.0
  0
LINE
  8
0
 62
     0
 10
188.969
 20
24.2204
 30
0.0
 11
188.815
 21
24.8006
 31
0.0
  0
LINE
  8
0
 62
     0
 10
188.815
 20
24.8006
 30
0.0
 11
175.292
 21
21.1777
 31
0.0
  0
LINE
  8
0
 62
     0
 10
95.3202
 20
38.3522
 30
0.0
 11
94.5473
 21
38.559
 31
0.0
  0
LINE
  8
0
 62
     0
 10
94.5473
 20
38.559
 30
0.0
 11
91.2343
 21
26.1951
 31
0.0
  0
LINE
  8
0
 62
     0
 10
91.2343
 20
26.1951
 30
0.0
 11
92.0076
 21
25.9884
 31
0.0
  0
LINE
  8
0
 62
     0
 10
92.0076
 20
25.9884
 30
0.0
 11
91.8531
 21
25.4096
 31
0.0
  0
LINE
  8
0
 62
     0
 10
91.8531
 20
25.4096
 30
0.0
 11
105.376
 21
21.7854
 31
0.0
  0
LINE
  8
0
 62
     0
 10
105.376
 20
21.7854
 30
0.0
 11
105.53
 21
22.3655
 31
0.0
  0
LINE
  8
0
 62
     0
 10
105.53
 20
22.3655
 30
0.0
 11
106.303
 21
22.1575
 31
0.0
  0
LINE
  8
0
 62
     0
 10
106.303
 20
22.1575
 30
0.0
 11
109.616
 21
34.5226
 31
0.0
  0
LINE
  8
0
 62
     0
 10
109.616
 20
34.5226
 30
0.0
 11
108.843
 21
34.7293
 31
0.0
  0
LINE
  8
0
 62
     0
 10
108.843
 20
34.7293
 30
0.0
 11
108.999
 21
35.3081
 31
0.0
  0
LINE
  8
0
 62
     0
 10
108.999
 20
35.3081
 30
0.0
 11
95.4761
 21
38.9322
 31
0.0
  0
LINE
  8
0
 62
     0
 10
95.4761
 20
38.9322
 30
0.0
 11
95.3202
 21
38.3522
 31
0.0
  0
LINE
  8
0
 62
     0
 10
191.226
 20
35.3081
 30
0.0
 11
191.382
 21
34.7293
 31
0.0
  0
LINE
  8
0
 62
     0
 10
191.382
 20
34.7293
 30
0.0
 11
190.609
 21
34.5226
 31
0.0
  0
LINE
  8
0
 62
     0
 10
190.609
 20
34.5226
 30
0.0
 11
193.923
 21
22.1575
 31
0.0
  0
LINE
  8
0
 62
     0
 10
193.923
 20
22.1575
 30
0.0
 11
194.696
 21
22.3655
 31
0.0
  0
LINE
  8
0
 62
     0
 10
194.696
 20
22.3655
 30
0.0
 11
194.85
 21
21.7854
 31
0.0
  0
LINE
  8
0
 62
     0
 10
194.85
 20
21.7854
 30
0.0
 11
208.373
 21
25.4096
 31
0.0
  0
LINE
  8
0
 62
     0
 10
208.373
 20
25.4096
 30
0.0
 11
208.219
 21
25.9884
 31
0.0
  0
LINE
  8
0
 62
     0
 10
208.219
 20
25.9884
 30
0.0
 11
208.99
 21
26.1951
 31
0.0
  0
LINE
  8
0
 62
     0
 10
208.99
 20
26.1951
 30
0.0
 11
205.678
 21
38.559
 31
0.0
  0
LINE
  8
0
 62
     0
 10
205.678
 20
38.559
 30
0.0
 11
204.906
 21
38.3522
 31
0.0
  0
LINE
  8
0
 62
     0
 10
204.906
 20
38.3522
 30
0.0
 11
204.749
 21
38.9322
 31
0.0
  0
LINE
  8
0
 62
     0
 10
204.749
 20
38.9322
 30
0.0
 11
191.226
 21
35.3081
 31
0.0
  0
LINE
  8
0
 62
     0
 10
116.187
 20
42.6226
 30
0.0
 11
115.413
 21
42.8293
 31
0.0
  0
LINE
  8
0
 62
     0
 10
115.413
 20
42.8293
 30
0.0
 11
112.101
 21
30.4657
 31
0.0
  0
LINE
  8
0
 62
     0
 10
112.101
 20
30.4657
 30
0.0
 11
112.874
 21
30.2576
 31
0.0
  0
LINE
  8
0
 62
     0
 10
112.874
 20
30.2576
 30
0.0
 11
112.718
 21
29.6788
 31
0.0
  0
LINE
  8
0
 62
     0
 10
112.718
 20
29.6788
 30
0.0
 11
126.242
 21
26.0546
 31
0.0
  0
LINE
  8
0
 62
     0
 10
126.242
 20
26.0546
 30
0.0
 11
126.396
 21
26.6347
 31
0.0
  0
LINE
  8
0
 62
     0
 10
126.396
 20
26.6347
 30
0.0
 11
127.169
 21
26.428
 31
0.0
  0
LINE
  8
0
 62
     0
 10
127.169
 20
26.428
 30
0.0
 11
130.482
 21
38.7918
 31
0.0
  0
LINE
  8
0
 62
     0
 10
130.482
 20
38.7918
 30
0.0
 11
129.709
 21
38.9985
 31
0.0
  0
LINE
  8
0
 62
     0
 10
129.709
 20
38.9985
 30
0.0
 11
129.865
 21
39.5785
 31
0.0
  0
LINE
  8
0
 62
     0
 10
129.865
 20
39.5785
 30
0.0
 11
116.341
 21
43.2015
 31
0.0
  0
LINE
  8
0
 62
     0
 10
116.341
 20
43.2015
 30
0.0
 11
116.187
 21
42.6226
 31
0.0
  0
LINE
  8
0
 62
     0
 10
170.36
 20
39.5785
 30
0.0
 11
170.517
 21
38.9985
 31
0.0
  0
LINE
  8
0
 62
     0
 10
170.517
 20
38.9985
 30
0.0
 11
169.744
 21
38.7918
 31
0.0
  0
LINE
  8
0
 62
     0
 10
169.744
 20
38.7918
 30
0.0
 11
173.057
 21
26.428
 31
0.0
  0
LINE
  8
0
 62
     0
 10
173.057
 20
26.428
 30
0.0
 11
173.828
 21
26.6347
 31
0.0
  0
LINE
  8
0
 62
     0
 10
173.828
 20
26.6347
 30
0.0
 11
173.984
 21
26.0546
 31
0.0
  0
LINE
  8
0
 62
     0
 10
173.984
 20
26.0546
 30
0.0
 11
187.507
 21
29.6788
 31
0.0
  0
LINE
  8
0
 62
     0
 10
187.507
 20
29.6788
 30
0.0
 11
187.351
 21
30.2576
 31
0.0
  0
LINE
  8
0
 62
     0
 10
187.351
 20
30.2576
 30
0.0
 11
188.124
 21
30.4657
 31
0.0
  0
LINE
  8
0
 62
     0
 10
188.124
 20
30.4657
 30
0.0
 11
184.811
 21
42.8293
 31
0.0
  0
LINE
  8
0
 62
     0
 10
184.811
 20
42.8293
 30
0.0
 11
184.04
 21
42.6226
 31
0.0
  0
LINE
  8
0
 62
     0
 10
184.04
 20
42.6226
 30
0.0
 11
183.884
 21
43.2015
 31
0.0
  0
LINE
  8
0
 62
     0
 10
183.884
 20
43.2015
 30
0.0
 11
170.36
 21
39.5785
 31
0.0
  0
LINE
  8
0
 62
     0
 10
2.61965
 20
56.8233
 30
0.0
 11
2.61965
 21
56.224
 31
0.0
  0
LINE
  8
0
 62
     0
 10
2.61965
 20
56.224
 30
0.0
 11
1.81901
 21
56.224
 31
0.0
  0
LINE
  8
0
 62
     0
 10
1.81901
 20
56.224
 30
0.0
 11
1.81901
 21
43.4248
 31
0.0
  0
LINE
  8
0
 62
     0
 10
1.81901
 20
43.4248
 30
0.0
 11
2.61965
 21
43.4248
 31
0.0
  0
LINE
  8
0
 62
     0
 10
2.61965
 20
43.4248
 30
0.0
 11
2.61965
 21
42.824
 31
0.0
  0
LINE
  8
0
 62
     0
 10
2.61965
 20
42.824
 30
0.0
 11
16.6192
 21
42.824
 31
0.0
  0
LINE
  8
0
 62
     0
 10
16.6192
 20
42.824
 30
0.0
 11
16.6192
 21
43.4248
 31
0.0
  0
LINE
  8
0
 62
     0
 10
16.6192
 20
43.4248
 30
0.0
 11
17.4198
 21
43.4248
 31
0.0
  0
LINE
  8
0
 62
     0
 10
17.4198
 20
43.4248
 30
0.0
 11
17.4198
 21
56.224
 31
0.0
  0
LINE
  8
0
 62
     0
 10
17.4198
 20
56.224
 30
0.0
 11
16.6192
 21
56.224
 31
0.0
  0
LINE
  8
0
 62
     0
 10
16.6192
 20
56.224
 30
0.0
 11
16.6192
 21
56.8233
 31
0.0
  0
LINE
  8
0
 62
     0
 10
16.6192
 20
56.8233
 30
0.0
 11
2.61965
 21
56.8233
 31
0.0
  0
LINE
  8
0
 62
     0
 10
21.6697
 20
56.8233
 30
0.0
 11
21.6697
 21
56.224
 31
0.0
  0
LINE
  8
0
 62
     0
 10
21.6697
 20
56.224
 30
0.0
 11
20.869
 21
56.224
 31
0.0
  0
LINE
  8
0
 62
     0
 10
20.869
 20
56.224
 30
0.0
 11
20.869
 21
43.4248
 31
0.0
  0
LINE
  8
0
 62
     0
 10
20.869
 20
43.4248
 30
0.0
 11
21.6697
 21
43.4248
 31
0.0
  0
LINE
  8
0
 62
     0
 10
21.6697
 20
43.4248
 30
0.0
 11
21.6697
 21
42.824
 31
0.0
  0
LINE
  8
0
 62
     0
 10
21.6697
 20
42.824
 30
0.0
 11
35.669
 21
42.824
 31
0.0
  0
LINE
  8
0
 62
     0
 10
35.669
 20
42.824
 30
0.0
 11
35.669
 21
43.4248
 31
0.0
  0
LINE
  8
0
 62
     0
 10
35.669
 20
43.4248
 30
0.0
 11
36.4698
 21
43.4248
 31
0.0
  0
LINE
  8
0
 62
     0
 10
36.4698
 20
43.4248
 30
0.0
 11
36.4698
 21
56.224
 31
0.0
  0
LINE
  8
0
 62
     0
 10
36.4698
 20
56.224
 30
0.0
 11
35.669
 21
56.224
 31
0.0
  0
LINE
  8
0
 62
     0
 10
35.669
 20
56.224
 30
0.0
 11
35.669
 21
56.8233
 31
0.0
  0
LINE
  8
0
 62
     0
 10
35.669
 20
56.8233
 30
0.0
 11
21.6697
 21
56.8233
 31
0.0
  0
LINE
  8
0
 62
     0
 10
264.557
 20
56.8233
 30
0.0
 11
264.557
 21
56.224
 31
0.0
  0
LINE
  8
0
 62
     0
 10
264.557
 20
56.224
 30
0.0
 11
263.756
 21
56.224
 31
0.0
  0
LINE
  8
0
 62
     0
 10
263.756
 20
56.224
 30
0.0
 11
263.756
 21
43.4248
 31
0.0
  0
LINE
  8
0
 62
     0
 10
263.756
 20
43.4248
 30
0.0
 11
264.557
 21
43.4248
 31
0.0
  0
LINE
  8
0
 62
     0
 10
264.557
 20
43.4248
 30
0.0
 11
264.557
 21
42.824
 31
0.0
  0
LINE
  8
0
 62
     0
 10
264.557
 20
42.824
 30
0.0
 11
278.557
 21
42.824
 31
0.0
  0
LINE
  8
0
 62
     0
 10
278.557
 20
42.824
 30
0.0
 11
278.557
 21
43.4248
 31
0.0
  0
LINE
  8
0
 62
     0
 10
278.557
 20
43.4248
 30
0.0
 11
279.356
 21
43.4248
 31
0.0
  0
LINE
  8
0
 62
     0
 10
279.356
 20
43.4248
 30
0.0
 11
279.356
 21
56.224
 31
0.0
  0
LINE
  8
0
 62
     0
 10
279.356
 20
56.224
 30
0.0
 11
278.557
 21
56.224
 31
0.0
  0
LINE
  8
0
 62
     0
 10
278.557
 20
56.224
 30
0.0
 11
278.557
 21
56.8233
 31
0.0
  0
LINE
  8
0
 62
     0
 10
278.557
 20
56.8233
 30
0.0
 11
264.557
 21
56.8233
 31
0.0
  0
LINE
  8
0
 62
     0
 10
283.607
 20
56.8233
 30
0.0
 11
283.607
 21
56.224
 31
0.0
  0
LINE
  8
0
 62
     0
 10
283.607
 20
56.224
 30
0.0
 11
282.806
 21
56.224
 31
0.0
  0
LINE
  8
0
 62
     0
 10
282.806
 20
56.224
 30
0.0
 11
282.806
 21
43.4248
 31
0.0
  0
LINE
  8
0
 62
     0
 10
282.806
 20
43.4248
 30
0.0
 11
283.607
 21
43.4248
 31
0.0
  0
LINE
  8
0
 62
     0
 10
283.607
 20
43.4248
 30
0.0
 11
283.607
 21
42.824
 31
0.0
  0
LINE
  8
0
 62
     0
 10
283.607
 20
42.824
 30
0.0
 11
297.607
 21
42.824
 31
0.0
  0
LINE
  8
0
 62
     0
 10
297.607
 20
42.824
 30
0.0
 11
297.607
 21
43.4248
 31
0.0
  0
LINE
  8
0
 62
     0
 10
297.607
 20
43.4248
 30
0.0
 11
298.406
 21
43.4248
 31
0.0
  0
LINE
  8
0
 62
     0
 10
298.406
 20
43.4248
 30
0.0
 11
298.406
 21
56.224
 31
0.0
  0
LINE
  8
0
 62
     0
 10
298.406
 20
56.224
 30
0.0
 11
297.607
 21
56.224
 31
0.0
  0
LINE
  8
0
 62
     0
 10
297.607
 20
56.224
 30
0.0
 11
297.607
 21
56.8233
 31
0.0
  0
LINE
  8
0
 62
     0
 10
297.607
 20
56.8233
 30
0.0
 11
283.607
 21
56.8233
 31
0.0
  0
LINE
  8
0
 62
     0
 10
97.8697
 20
61.5858
 30
0.0
 11
97.8697
 21
60.9865
 31
0.0
  0
LINE
  8
0
 62
     0
 10
97.8697
 20
60.9865
 30
0.0
 11
97.0689
 21
60.9865
 31
0.0
  0
LINE
  8
0
 62
     0
 10
97.0689
 20
60.9865
 30
0.0
 11
97.0689
 21
48.1859
 31
0.0
  0
LINE
  8
0
 62
     0
 10
97.0689
 20
48.1859
 30
0.0
 11
97.8697
 21
48.1859
 31
0.0
  0
LINE
  8
0
 62
     0
 10
97.8697
 20
48.1859
 30
0.0
 11
97.8697
 21
47.5865
 31
0.0
  0
LINE
  8
0
 62
     0
 10
97.8697
 20
47.5865
 30
0.0
 11
111.869
 21
47.5865
 31
0.0
  0
LINE
  8
0
 62
     0
 10
111.869
 20
47.5865
 30
0.0
 11
111.869
 21
48.1859
 31
0.0
  0
LINE
  8
0
 62
     0
 10
111.869
 20
48.1859
 30
0.0
 11
112.67
 21
48.1859
 31
0.0
  0
LINE
  8
0
 62
     0
 10
112.67
 20
48.1859
 30
0.0
 11
112.67
 21
60.9865
 31
0.0
  0
LINE
  8
0
 62
     0
 10
112.67
 20
60.9865
 30
0.0
 11
111.869
 21
60.9865
 31
0.0
  0
LINE
  8
0
 62
     0
 10
111.869
 20
60.9865
 30
0.0
 11
111.869
 21
61.5858
 31
0.0
  0
LINE
  8
0
 62
     0
 10
111.869
 20
61.5858
 30
0.0
 11
97.8697
 21
61.5858
 31
0.0
  0
LINE
  8
0
 62
     0
 10
188.357
 20
61.5858
 30
0.0
 11
188.357
 21
60.9865
 31
0.0
  0
LINE
  8
0
 62
     0
 10
188.357
 20
60.9865
 30
0.0
 11
187.556
 21
60.9865
 31
0.0
  0
LINE
  8
0
 62
     0
 10
187.556
 20
60.9865
 30
0.0
 11
187.556
 21
48.1859
 31
0.0
  0
LINE
  8
0
 62
     0
 10
187.556
 20
48.1859
 30
0.0
 11
188.357
 21
48.1859
 31
0.0
  0
LINE
  8
0
 62
     0
 10
188.357
 20
48.1859
 30
0.0
 11
188.357
 21
47.5865
 31
0.0
  0
LINE
  8
0
 62
     0
 10
188.357
 20
47.5865
 30
0.0
 11
202.357
 21
47.5865
 31
0.0
  0
LINE
  8
0
 62
     0
 10
202.357
 20
47.5865
 30
0.0
 11
202.357
 21
48.1859
 31
0.0
  0
LINE
  8
0
 62
     0
 10
202.357
 20
48.1859
 30
0.0
 11
203.156
 21
48.1859
 31
0.0
  0
LINE
  8
0
 62
     0
 10
203.156
 20
48.1859
 30
0.0
 11
203.156
 21
60.9865
 31
0.0
  0
LINE
  8
0
 62
     0
 10
203.156
 20
60.9865
 30
0.0
 11
202.357
 21
60.9865
 31
0.0
  0
LINE
  8
0
 62
     0
 10
202.357
 20
60.9865
 30
0.0
 11
202.357
 21
61.5858
 31
0.0
  0
LINE
  8
0
 62
     0
 10
202.357
 20
61.5858
 30
0.0
 11
188.357
 21
61.5858
 31
0.0
  0
LINE
  8
0
 62
     0
 10
40.7197
 20
66.3483
 30
0.0
 11
40.7197
 21
65.749
 31
0.0
  0
LINE
  8
0
 62
     0
 10
40.7197
 20
65.749
 30
0.0
 11
39.9189
 21
65.749
 31
0.0
  0
LINE
  8
0
 62
     0
 10
39.9189
 20
65.749
 30
0.0
 11
39.9189
 21
52.9498
 31
0.0
  0
LINE
  8
0
 62
     0
 10
39.9189
 20
52.9498
 30
0.0
 11
40.7197
 21
52.9498
 31
0.0
  0
LINE
  8
0
 62
     0
 10
40.7197
 20
52.9498
 30
0.0
 11
40.7197
 21
52.349
 31
0.0
  0
LINE
  8
0
 62
     0
 10
40.7197
 20
52.349
 30
0.0
 11
54.719
 21
52.349
 31
0.0
  0
LINE
  8
0
 62
     0
 10
54.719
 20
52.349
 30
0.0
 11
54.719
 21
52.9498
 31
0.0
  0
LINE
  8
0
 62
     0
 10
54.719
 20
52.9498
 30
0.0
 11
55.5198
 21
52.9498
 31
0.0
  0
LINE
  8
0
 62
     0
 10
55.5198
 20
52.9498
 30
0.0
 11
55.5198
 21
65.749
 31
0.0
  0
LINE
  8
0
 62
     0
 10
55.5198
 20
65.749
 30
0.0
 11
54.719
 21
65.749
 31
0.0
  0
LINE
  8
0
 62
     0
 10
54.719
 20
65.749
 30
0.0
 11
54.719
 21
66.3483
 31
0.0
  0
LINE
  8
0
 62
     0
 10
54.719
 20
66.3483
 30
0.0
 11
40.7197
 21
66.3483
 31
0.0
  0
LINE
  8
0
 62
     0
 10
78.8197
 20
66.3483
 30
0.0
 11
78.8197
 21
65.749
 31
0.0
  0
LINE
  8
0
 62
     0
 10
78.8197
 20
65.749
 30
0.0
 11
78.0189
 21
65.749
 31
0.0
  0
LINE
  8
0
 62
     0
 10
78.0189
 20
65.749
 30
0.0
 11
78.0189
 21
52.9498
 31
0.0
  0
LINE
  8
0
 62
     0
 10
78.0189
 20
52.9498
 30
0.0
 11
78.8197
 21
52.9498
 31
0.0
  0
LINE
  8
0
 62
     0
 10
78.8197
 20
52.9498
 30
0.0
 11
78.8197
 21
52.349
 31
0.0
  0
LINE
  8
0
 62
     0
 10
78.8197
 20
52.349
 30
0.0
 11
92.819
 21
52.349
 31
0.0
  0
LINE
  8
0
 62
     0
 10
92.819
 20
52.349
 30
0.0
 11
92.819
 21
52.9498
 31
0.0
  0
LINE
  8
0
 62
     0
 10
92.819
 20
52.9498
 30
0.0
 11
93.6184
 21
52.9498
 31
0.0
  0
LINE
  8
0
 62
     0
 10
93.6184
 20
52.9498
 30
0.0
 11
93.6184
 21
65.749
 31
0.0
  0
LINE
  8
0
 62
     0
 10
93.6184
 20
65.749
 30
0.0
 11
92.819
 21
65.749
 31
0.0
  0
LINE
  8
0
 62
     0
 10
92.819
 20
65.749
 30
0.0
 11
92.819
 21
66.3483
 31
0.0
  0
LINE
  8
0
 62
     0
 10
92.819
 20
66.3483
 30
0.0
 11
78.8197
 21
66.3483
 31
0.0
  0
LINE
  8
0
 62
     0
 10
207.407
 20
66.3483
 30
0.0
 11
207.407
 21
65.749
 31
0.0
  0
LINE
  8
0
 62
     0
 10
207.407
 20
65.749
 30
0.0
 11
206.606
 21
65.749
 31
0.0
  0
LINE
  8
0
 62
     0
 10
206.606
 20
65.749
 30
0.0
 11
206.606
 21
52.9498
 31
0.0
  0
LINE
  8
0
 62
     0
 10
206.606
 20
52.9498
 30
0.0
 11
207.407
 21
52.9498
 31
0.0
  0
LINE
  8
0
 62
     0
 10
207.407
 20
52.9498
 30
0.0
 11
207.407
 21
52.349
 31
0.0
  0
LINE
  8
0
 62
     0
 10
207.407
 20
52.349
 30
0.0
 11
221.407
 21
52.349
 31
0.0
  0
LINE
  8
0
 62
     0
 10
221.407
 20
52.349
 30
0.0
 11
221.407
 21
52.9498
 31
0.0
  0
LINE
  8
0
 62
     0
 10
221.407
 20
52.9498
 30
0.0
 11
222.206
 21
52.9498
 31
0.0
  0
LINE
  8
0
 62
     0
 10
222.206
 20
52.9498
 30
0.0
 11
222.206
 21
65.749
 31
0.0
  0
LINE
  8
0
 62
     0
 10
222.206
 20
65.749
 30
0.0
 11
221.407
 21
65.749
 31
0.0
  0
LINE
  8
0
 62
     0
 10
221.407
 20
65.749
 30
0.0
 11
221.407
 21
66.3483
 31
0.0
  0
LINE
  8
0
 62
     0
 10
221.407
 20
66.3483
 30
0.0
 11
207.407
 21
66.3483
 31
0.0
  0
LINE
  8
0
 62
     0
 10
245.507
 20
66.3483
 30
0.0
 11
245.507
 21
65.749
 31
0.0
  0
LINE
  8
0
 62
     0
 10
245.507
 20
65.749
 30
0.0
 11
244.706
 21
65.749
 31
0.0
  0
LINE
  8
0
 62
     0
 10
244.706
 20
65.749
 30
0.0
 11
244.706
 21
52.9498
 31
0.0
  0
LINE
  8
0
 62
     0
 10
244.706
 20
52.9498
 30
0.0
 11
245.507
 21
52.9498
 31
0.0
  0
LINE
  8
0
 62
     0
 10
245.507
 20
52.9498
 30
0.0
 11
245.507
 21
52.349
 31
0.0
  0
LINE
  8
0
 62
     0
 10
245.507
 20
52.349
 30
0.0
 11
259.507
 21
52.349
 31
0.0
  0
LINE
  8
0
 62
     0
 10
259.507
 20
52.349
 30
0.0
 11
259.507
 21
52.9498
 31
0.0
  0
LINE
  8
0
 62
     0
 10
259.507
 20
52.9498
 30
0.0
 11
260.306
 21
52.9498
 31
0.0
  0
LINE
  8
0
 62
     0
 10
260.306
 20
52.9498
 30
0.0
 11
260.306
 21
65.749
 31
0.0
  0
LINE
  8
0
 62
     0
 10
260.306
 20
65.749
 30
0.0
 11
259.507
 21
65.749
 31
0.0
  0
LINE
  8
0
 62
     0
 10
259.507
 20
65.749
 30
0.0
 11
259.507
 21
66.3483
 31
0.0
  0
LINE
  8
0
 62
     0
 10
259.507
 20
66.3483
 30
0.0
 11
245.507
 21
66.3483
 31
0.0
  0
LINE
  8
0
 62
     0
 10
59.7697
 20
71.1108
 30
0.0
 11
59.7697
 21
70.5115
 31
0.0
  0
LINE
  8
0
 62
     0
 10
59.7697
 20
70.5115
 30
0.0
 11
58.9689
 21
70.5115
 31
0.0
  0
LINE
  8
0
 62
     0
 10
58.9689
 20
70.5115
 30
0.0
 11
58.9689
 21
57.7109
 31
0.0
  0
LINE
  8
0
 62
     0
 10
58.9689
 20
57.7109
 30
0.0
 11
59.7697
 21
57.7109
 31
0.0
  0
LINE
  8
0
 62
     0
 10
59.7697
 20
57.7109
 30
0.0
 11
59.7697
 21
57.1115
 31
0.0
  0
LINE
  8
0
 62
     0
 10
59.7697
 20
57.1115
 30
0.0
 11
73.769
 21
57.1115
 31
0.0
  0
LINE
  8
0
 62
     0
 10
73.769
 20
57.1115
 30
0.0
 11
73.769
 21
57.7109
 31
0.0
  0
LINE
  8
0
 62
     0
 10
73.769
 20
57.7109
 30
0.0
 11
74.5698
 21
57.7109
 31
0.0
  0
LINE
  8
0
 62
     0
 10
74.5698
 20
57.7109
 30
0.0
 11
74.5698
 21
70.5115
 31
0.0
  0
LINE
  8
0
 62
     0
 10
74.5698
 20
70.5115
 30
0.0
 11
73.769
 21
70.5115
 31
0.0
  0
LINE
  8
0
 62
     0
 10
73.769
 20
70.5115
 30
0.0
 11
73.769
 21
71.1108
 31
0.0
  0
LINE
  8
0
 62
     0
 10
73.769
 20
71.1108
 30
0.0
 11
59.7697
 21
71.1108
 31
0.0
  0
LINE
  8
0
 62
     0
 10
226.457
 20
71.1108
 30
0.0
 11
226.457
 21
70.5115
 31
0.0
  0
LINE
  8
0
 62
     0
 10
226.457
 20
70.5115
 30
0.0
 11
225.656
 21
70.5115
 31
0.0
  0
LINE
  8
0
 62
     0
 10
225.656
 20
70.5115
 30
0.0
 11
225.656
 21
57.7109
 31
0.0
  0
LINE
  8
0
 62
     0
 10
225.656
 20
57.7109
 30
0.0
 11
226.457
 21
57.7109
 31
0.0
  0
LINE
  8
0
 62
     0
 10
226.457
 20
57.7109
 30
0.0
 11
226.457
 21
57.1115
 31
0.0
  0
LINE
  8
0
 62
     0
 10
226.457
 20
57.1115
 30
0.0
 11
240.457
 21
57.1115
 31
0.0
  0
LINE
  8
0
 62
     0
 10
240.457
 20
57.1115
 30
0.0
 11
240.457
 21
57.7109
 31
0.0
  0
LINE
  8
0
 62
     0
 10
240.457
 20
57.7109
 30
0.0
 11
241.256
 21
57.7109
 31
0.0
  0
LINE
  8
0
 62
     0
 10
241.256
 20
57.7109
 30
0.0
 11
241.256
 21
70.5115
 31
0.0
  0
LINE
  8
0
 62
     0
 10
241.256
 20
70.5115
 30
0.0
 11
240.457
 21
70.5115
 31
0.0
  0
LINE
  8
0
 62
     0
 10
240.457
 20
70.5115
 30
0.0
 11
240.457
 21
71.1108
 31
0.0
  0
LINE
  8
0
 62
     0
 10
240.457
 20
71.1108
 30
0.0
 11
226.457
 21
71.1108
 31
0.0
  0
LINE
  8
0
 62
     0
 10
2.61965
 20
75.8733
 30
0.0
 11
2.61965
 21
75.274
 31
0.0
  0
LINE
  8
0
 62
     0
 10
2.61965
 20
75.274
 30
0.0
 11
1.81901
 21
75.274
 31
0.0
  0
LINE
  8
0
 62
     0
 10
1.81901
 20
75.274
 30
0.0
 11
1.81901
 21
62.4748
 31
0.0
  0
LINE
  8
0
 62
     0
 10
1.81901
 20
62.4748
 30
0.0
 11
2.61965
 21
62.4748
 31
0.0
  0
LINE
  8
0
 62
     0
 10
2.61965
 20
62.4748
 30
0.0
 11
2.61965
 21
61.874
 31
0.0
  0
LINE
  8
0
 62
     0
 10
2.61965
 20
61.874
 30
0.0
 11
16.6192
 21
61.874
 31
0.0
  0
LINE
  8
0
 62
     0
 10
16.6192
 20
61.874
 30
0.0
 11
16.6192
 21
62.4748
 31
0.0
  0
LINE
  8
0
 62
     0
 10
16.6192
 20
62.4748
 30
0.0
 11
17.4198
 21
62.4748
 31
0.0
  0
LINE
  8
0
 62
     0
 10
17.4198
 20
62.4748
 30
0.0
 11
17.4198
 21
75.274
 31
0.0
  0
LINE
  8
0
 62
     0
 10
17.4198
 20
75.274
 30
0.0
 11
16.6192
 21
75.274
 31
0.0
  0
LINE
  8
0
 62
     0
 10
16.6192
 20
75.274
 30
0.0
 11
16.6192
 21
75.8733
 31
0.0
  0
LINE
  8
0
 62
     0
 10
16.6192
 20
75.8733
 30
0.0
 11
2.61965
 21
75.8733
 31
0.0
  0
LINE
  8
0
 62
     0
 10
21.6697
 20
75.8733
 30
0.0
 11
21.6697
 21
75.274
 31
0.0
  0
LINE
  8
0
 62
     0
 10
21.6697
 20
75.274
 30
0.0
 11
20.869
 21
75.274
 31
0.0
  0
LINE
  8
0
 62
     0
 10
20.869
 20
75.274
 30
0.0
 11
20.869
 21
62.4748
 31
0.0
  0
LINE
  8
0
 62
     0
 10
20.869
 20
62.4748
 30
0.0
 11
21.6697
 21
62.4748
 31
0.0
  0
LINE
  8
0
 62
     0
 10
21.6697
 20
62.4748
 30
0.0
 11
21.6697
 21
61.874
 31
0.0
  0
LINE
  8
0
 62
     0
 10
21.6697
 20
61.874
 30
0.0
 11
35.669
 21
61.874
 31
0.0
  0
LINE
  8
0
 62
     0
 10
35.669
 20
61.874
 30
0.0
 11
35.669
 21
62.4748
 31
0.0
  0
LINE
  8
0
 62
     0
 10
35.669
 20
62.4748
 30
0.0
 11
36.4698
 21
62.4748
 31
0.0
  0
LINE
  8
0
 62
     0
 10
36.4698
 20
62.4748
 30
0.0
 11
36.4698
 21
75.274
 31
0.0
  0
LINE
  8
0
 62
     0
 10
36.4698
 20
75.274
 30
0.0
 11
35.669
 21
75.274
 31
0.0
  0
LINE
  8
0
 62
     0
 10
35.669
 20
75.274
 30
0.0
 11
35.669
 21
75.8733
 31
0.0
  0
LINE
  8
0
 62
     0
 10
35.669
 20
75.8733
 30
0.0
 11
21.6697
 21
75.8733
 31
0.0
  0
LINE
  8
0
 62
     0
 10
264.557
 20
75.8733
 30
0.0
 11
264.557
 21
75.274
 31
0.0
  0
LINE
  8
0
 62
     0
 10
264.557
 20
75.274
 30
0.0
 11
263.756
 21
75.274
 31
0.0
  0
LINE
  8
0
 62
     0
 10
263.756
 20
75.274
 30
0.0
 11
263.756
 21
62.4748
 31
0.0
  0
LINE
  8
0
 62
     0
 10
263.756
 20
62.4748
 30
0.0
 11
264.557
 21
62.4748
 31
0.0
  0
LINE
  8
0
 62
     0
 10
264.557
 20
62.4748
 30
0.0
 11
264.557
 21
61.874
 31
0.0
  0
LINE
  8
0
 62
     0
 10
264.557
 20
61.874
 30
0.0
 11
278.557
 21
61.874
 31
0.0
  0
LINE
  8
0
 62
     0
 10
278.557
 20
61.874
 30
0.0
 11
278.557
 21
62.4748
 31
0.0
  0
LINE
  8
0
 62
     0
 10
278.557
 20
62.4748
 30
0.0
 11
279.356
 21
62.4748
 31
0.0
  0
LINE
  8
0
 62
     0
 10
279.356
 20
62.4748
 30
0.0
 11
279.356
 21
75.274
 31
0.0
  0
LINE
  8
0
 62
     0
 10
279.356
 20
75.274
 30
0.0
 11
278.557
 21
75.274
 31
0.0
  0
LINE
  8
0
 62
     0
 10
278.557
 20
75.274
 30
0.0
 11
278.557
 21
75.8733
 31
0.0
  0
LINE
  8
0
 62
     0
 10
278.557
 20
75.8733
 30
0.0
 11
264.557
 21
75.8733
 31
0.0
  0
LINE
  8
0
 62
     0
 10
283.607
 20
75.8733
 30
0.0
 11
283.607
 21
75.274
 31
0.0
  0
LINE
  8
0
 62
     0
 10
283.607
 20
75.274
 30
0.0
 11
282.806
 21
75.274
 31
0.0
  0
LINE
  8
0
 62
     0
 10
282.806
 20
75.274
 30
0.0
 11
282.806
 21
62.4748
 31
0.0
  0
LINE
  8
0
 62
     0
 10
282.806
 20
62.4748
 30
0.0
 11
283.607
 21
62.4748
 31
0.0
  0
LINE
  8
0
 62
     0
 10
283.607
 20
62.4748
 30
0.0
 11
283.607
 21
61.874
 31
0.0
  0
LINE
  8
0
 62
     0
 10
283.607
 20
61.874
 30
0.0
 11
297.607
 21
61.874
 31
0.0
  0
LINE
  8
0
 62
     0
 10
297.607
 20
61.874
 30
0.0
 11
297.607
 21
62.4748
 31
0.0
  0
LINE
  8
0
 62
     0
 10
297.607
 20
62.4748
 30
0.0
 11
298.406
 21
62.4748
 31
0.0
  0
LINE
  8
0
 62
     0
 10
298.406
 20
62.4748
 30
0.0
 11
298.406
 21
75.274
 31
0.0
  0
LINE
  8
0
 62
     0
 10
298.406
 20
75.274
 30
0.0
 11
297.607
 21
75.274
 31
0.0
  0
LINE
  8
0
 62
     0
 10
297.607
 20
75.274
 30
0.0
 11
297.607
 21
75.8733
 31
0.0
  0
LINE
  8
0
 62
     0
 10
297.607
 20
75.8733
 30
0.0
 11
283.607
 21
75.8733
 31
0.0
  0
LINE
  8
0
 62
     0
 10
97.8697
 20
80.6358
 30
0.0
 11
97.8697
 21
80.0365
 31
0.0
  0
LINE
  8
0
 62
     0
 10
97.8697
 20
80.0365
 30
0.0
 11
97.0689
 21
80.0365
 31
0.0
  0
LINE
  8
0
 62
     0
 10
97.0689
 20
80.0365
 30
0.0
 11
97.0689
 21
67.2359
 31
0.0
  0
LINE
  8
0
 62
     0
 10
97.0689
 20
67.2359
 30
0.0
 11
97.8697
 21
67.2359
 31
0.0
  0
LINE
  8
0
 62
     0
 10
97.8697
 20
67.2359
 30
0.0
 11
97.8697
 21
66.6365
 31
0.0
  0
LINE
  8
0
 62
     0
 10
97.8697
 20
66.6365
 30
0.0
 11
111.869
 21
66.6365
 31
0.0
  0
LINE
  8
0
 62
     0
 10
111.869
 20
66.6365
 30
0.0
 11
111.869
 21
67.2359
 31
0.0
  0
LINE
  8
0
 62
     0
 10
111.869
 20
67.2359
 30
0.0
 11
112.67
 21
67.2359
 31
0.0
  0
LINE
  8
0
 62
     0
 10
112.67
 20
67.2359
 30
0.0
 11
112.67
 21
80.0365
 31
0.0
  0
LINE
  8
0
 62
     0
 10
112.67
 20
80.0365
 30
0.0
 11
111.869
 21
80.0365
 31
0.0
  0
LINE
  8
0
 62
     0
 10
111.869
 20
80.0365
 30
0.0
 11
111.869
 21
80.6358
 31
0.0
  0
LINE
  8
0
 62
     0
 10
111.869
 20
80.6358
 30
0.0
 11
97.8697
 21
80.6358
 31
0.0
  0
LINE
  8
0
 62
     0
 10
188.357
 20
80.6358
 30
0.0
 11
188.357
 21
80.0365
 31
0.0
  0
LINE
  8
0
 62
     0
 10
188.357
 20
80.0365
 30
0.0
 11
187.556
 21
80.0365
 31
0.0
  0
LINE
  8
0
 62
     0
 10
187.556
 20
80.0365
 30
0.0
 11
187.556
 21
67.2359
 31
0.0
  0
LINE
  8
0
 62
     0
 10
187.556
 20
67.2359
 30
0.0
 11
188.357
 21
67.2359
 31
0.0
  0
LINE
  8
0
 62
     0
 10
188.357
 20
67.2359
 30
0.0
 11
188.357
 21
66.6365
 31
0.0
  0
LINE
  8
0
 62
     0
 10
188.357
 20
66.6365
 30
0.0
 11
202.357
 21
66.6365
 31
0.0
  0
LINE
  8
0
 62
     0
 10
202.357
 20
66.6365
 30
0.0
 11
202.357
 21
67.2359
 31
0.0
  0
LINE
  8
0
 62
     0
 10
202.357
 20
67.2359
 30
0.0
 11
203.156
 21
67.2359
 31
0.0
  0
LINE
  8
0
 62
     0
 10
203.156
 20
67.2359
 30
0.0
 11
203.156
 21
80.0365
 31
0.0
  0
LINE
  8
0
 62
     0
 10
203.156
 20
80.0365
 30
0.0
 11
202.357
 21
80.0365
 31
0.0
  0
LINE
  8
0
 62
     0
 10
202.357
 20
80.0365
 30
0.0
 11
202.357
 21
80.6358
 31
0.0
  0
LINE
  8
0
 62
     0
 10
202.357
 20
80.6358
 30
0.0
 11
188.357
 21
80.6358
 31
0.0
  0
LINE
  8
0
 62
     0
 10
40.7197
 20
85.3983
 30
0.0
 11
40.7197
 21
84.799
 31
0.0
  0
LINE
  8
0
 62
     0
 10
40.7197
 20
84.799
 30
0.0
 11
39.9189
 21
84.799
 31
0.0
  0
LINE
  8
0
 62
     0
 10
39.9189
 20
84.799
 30
0.0
 11
39.9189
 21
71.9998
 31
0.0
  0
LINE
  8
0
 62
     0
 10
39.9189
 20
71.9998
 30
0.0
 11
40.7197
 21
71.9998
 31
0.0
  0
LINE
  8
0
 62
     0
 10
40.7197
 20
71.9998
 30
0.0
 11
40.7197
 21
71.399
 31
0.0
  0
LINE
  8
0
 62
     0
 10
40.7197
 20
71.399
 30
0.0
 11
54.719
 21
71.399
 31
0.0
  0
LINE
  8
0
 62
     0
 10
54.719
 20
71.399
 30
0.0
 11
54.719
 21
71.9998
 31
0.0
  0
LINE
  8
0
 62
     0
 10
54.719
 20
71.9998
 30
0.0
 11
55.5198
 21
71.9998
 31
0.0
  0
LINE
  8
0
 62
     0
 10
55.5198
 20
71.9998
 30
0.0
 11
55.5198
 21
84.799
 31
0.0
  0
LINE
  8
0
 62
     0
 10
55.5198
 20
84.799
 30
0.0
 11
54.719
 21
84.799
 31
0.0
  0
LINE
  8
0
 62
     0
 10
54.719
 20
84.799
 30
0.0
 11
54.719
 21
85.3983
 31
0.0
  0
LINE
  8
0
 62
     0
 10
54.719
 20
85.3983
 30
0.0
 11
40.7197
 21
85.3983
 31
0.0
  0
LINE
  8
0
 62
     0
 10
78.8197
 20
85.3983
 30
0.0
 11
78.8197
 21
84.799
 31
0.0
  0
LINE
  8
0
 62
     0
 10
78.8197
 20
84.799
 30
0.0
 11
78.0189
 21
84.799
 31
0.0
  0
LINE
  8
0
 62
     0
 10
78.0189
 20
84.799
 30
0.0
 11
78.0189
 21
71.9998
 31
0.0
  0
LINE
  8
0
 62
     0
 10
78.0189
 20
71.9998
 30
0.0
 11
78.8197
 21
71.9998
 31
0.0
  0
LINE
  8
0
 62
     0
 10
78.8197
 20
71.9998
 30
0.0
 11
78.8197
 21
71.399
 31
0.0
  0
LINE
  8
0
 62
     0
 10
78.8197
 20
71.399
 30
0.0
 11
92.819
 21
71.399
 31
0.0
  0
LINE
  8
0
 62
     0
 10
92.819
 20
71.399
 30
0.0
 11
92.819
 21
71.9998
 31
0.0
  0
LINE
  8
0
 62
     0
 10
92.819
 20
71.9998
 30
0.0
 11
93.6184
 21
71.9998
 31
0.0
  0
LINE
  8
0
 62
     0
 10
93.6184
 20
71.9998
 30
0.0
 11
93.6184
 21
84.799
 31
0.0
  0
LINE
  8
0
 62
     0
 10
93.6184
 20
84.799
 30
0.0
 11
92.819
 21
84.799
 31
0.0
  0
LINE
  8
0
 62
     0
 10
92.819
 20
84.799
 30
0.0
 11
92.819
 21
85.3983
 31
0.0
  0
LINE
  8
0
 62
     0
 10
92.819
 20
85.3983
 30
0.0
 11
78.8197
 21
85.3983
 31
0.0
  0
LINE
  8
0
 62
     0
 10
207.407
 20
85.3983
 30
0.0
 11
207.407
 21
84.799
 31
0.0
  0
LINE
  8
0
 62
     0
 10
207.407
 20
84.799
 30
0.0
 11
206.606
 21
84.799
 31
0.0
  0
LINE
  8
0
 62
     0
 10
206.606
 20
84.799
 30
0.0
 11
206.606
 21
71.9998
 31
0.0
  0
LINE
  8
0
 62
     0
 10
206.606
 20
71.9998
 30
0.0
 11
207.407
 21
71.9998
 31
0.0
  0
LINE
  8
0
 62
     0
 10
207.407
 20
71.9998
 30
0.0
 11
207.407
 21
71.399
 31
0.0
  0
LINE
  8
0
 62
     0
 10
207.407
 20
71.399
 30
0.0
 11
221.407
 21
71.399
 31
0.0
  0
LINE
  8
0
 62
     0
 10
221.407
 20
71.399
 30
0.0
 11
221.407
 21
71.9998
 31
0.0
  0
LINE
  8
0
 62
     0
 10
221.407
 20
71.9998
 30
0.0
 11
222.206
 21
71.9998
 31
0.0
  0
LINE
  8
0
 62
     0
 10
222.206
 20
71.9998
 30
0.0
 11
222.206
 21
84.799
 31
0.0
  0
LINE
  8
0
 62
     0
 10
222.206
 20
84.799
 30
0.0
 11
221.407
 21
84.799
 31
0.0
  0
LINE
  8
0
 62
     0
 10
221.407
 20
84.799
 30
0.0
 11
221.407
 21
85.3983
 31
0.0
  0
LINE
  8
0
 62
     0
 10
221.407
 20
85.3983
 30
0.0
 11
207.407
 21
85.3983
 31
0.0
  0
LINE
  8
0
 62
     0
 10
245.507
 20
85.3983
 30
0.0
 11
245.507
 21
84.799
 31
0.0
  0
LINE
  8
0
 62
     0
 10
245.507
 20
84.799
 30
0.0
 11
244.706
 21
84.799
 31
0.0
  0
LINE
  8
0
 62
     0
 10
244.706
 20
84.799
 30
0.0
 11
244.706
 21
71.9998
 31
0.0
  0
LINE
  8
0
 62
     0
 10
244.706
 20
71.9998
 30
0.0
 11
245.507
 21
71.9998
 31
0.0
  0
LINE
  8
0
 62
     0
 10
245.507
 20
71.9998
 30
0.0
 11
245.507
 21
71.399
 31
0.0
  0
LINE
  8
0
 62
     0
 10
245.507
 20
71.399
 30
0.0
 11
259.507
 21
71.399
 31
0.0
  0
LINE
  8
0
 62
     0
 10
259.507
 20
71.399
 30
0.0
 11
259.507
 21
71.9998
 31
0.0
  0
LINE
  8
0
 62
     0
 10
259.507
 20
71.9998
 30
0.0
 11
260.306
 21
71.9998
 31
0.0
  0
LINE
  8
0
 62
     0
 10
260.306
 20
71.9998
 30
0.0
 11
260.306
 21
84.799
 31
0.0
  0
LINE
  8
0
 62
     0
 10
260.306
 20
84.799
 30
0.0
 11
259.507
 21
84.799
 31
0.0
  0
LINE
  8
0
 62
     0
 10
259.507
 20
84.799
 30
0.0
 11
259.507
 21
85.3983
 31
0.0
  0
LINE
  8
0
 62
     0
 10
259.507
 20
85.3983
 30
0.0
 11
245.507
 21
85.3983
 31
0.0
  0
LINE
  8
0
 62
     0
 10
59.7697
 20
90.1608
 30
0.0
 11
59.7697
 21
89.5615
 31
0.0
  0
LINE
  8
0
 62
     0
 10
59.7697
 20
89.5615
 30
0.0
 11
58.9689
 21
89.5615
 31
0.0
  0
LINE
  8
0
 62
     0
 10
58.9689
 20
89.5615
 30
0.0
 11
58.9689
 21
76.7609
 31
0.0
  0
LINE
  8
0
 62
     0
 10
58.9689
 20
76.7609
 30
0.0
 11
59.7697
 21
76.7609
 31
0.0
  0
LINE
  8
0
 62
     0
 10
59.7697
 20
76.7609
 30
0.0
 11
59.7697
 21
76.1615
 31
0.0
  0
LINE
  8
0
 62
     0
 10
59.7697
 20
76.1615
 30
0.0
 11
73.769
 21
76.1615
 31
0.0
  0
LINE
  8
0
 62
     0
 10
73.769
 20
76.1615
 30
0.0
 11
73.769
 21
76.7609
 31
0.0
  0
LINE
  8
0
 62
     0
 10
73.769
 20
76.7609
 30
0.0
 11
74.5698
 21
76.7609
 31
0.0
  0
LINE
  8
0
 62
     0
 10
74.5698
 20
76.7609
 30
0.0
 11
74.5698
 21
89.5615
 31
0.0
  0
LINE
  8
0
 62
     0
 10
74.5698
 20
89.5615
 30
0.0
 11
73.769
 21
89.5615
 31
0.0
  0
LINE
  8
0
 62
     0
 10
73.769
 20
89.5615
 30
0.0
 11
73.769
 21
90.1608
 31
0.0
  0
LINE
  8
0
 62
     0
 10
73.769
 20
90.1608
 30
0.0
 11
59.7697
 21
90.1608
 31
0.0
  0
LINE
  8
0
 62
     0
 10
226.457
 20
90.1608
 30
0.0
 11
226.457
 21
89.5615
 31
0.0
  0
LINE
  8
0
 62
     0
 10
226.457
 20
89.5615
 30
0.0
 11
225.656
 21
89.5615
 31
0.0
  0
LINE
  8
0
 62
     0
 10
225.656
 20
89.5615
 30
0.0
 11
225.656
 21
76.7609
 31
0.0
  0
LINE
  8
0
 62
     0
 10
225.656
 20
76.7609
 30
0.0
 11
226.457
 21
76.7609
 31
0.0
  0
LINE
  8
0
 62
     0
 10
226.457
 20
76.7609
 30
0.0
 11
226.457
 21
76.1615
 31
0.0
  0
LINE
  8
0
 62
     0
 10
226.457
 20
76.1615
 30
0.0
 11
240.457
 21
76.1615
 31
0.0
  0
LINE
  8
0
 62
     0
 10
240.457
 20
76.1615
 30
0.0
 11
240.457
 21
76.7609
 31
0.0
  0
LINE
  8
0
 62
     0
 10
240.457
 20
76.7609
 30
0.0
 11
241.256
 21
76.7609
 31
0.0
  0
LINE
  8
0
 62
     0
 10
241.256
 20
76.7609
 30
0.0
 11
241.256
 21
89.5615
 31
0.0
  0
LINE
  8
0
 62
     0
 10
241.256
 20
89.5615
 30
0.0
 11
240.457
 21
89.5615
 31
0.0
  0
LINE
  8
0
 62
     0
 10
240.457
 20
89.5615
 30
0.0
 11
240.457
 21
90.1608
 31
0.0
  0
LINE
  8
0
 62
     0
 10
240.457
 20
90.1608
 30
0.0
 11
226.457
 21
90.1608
 31
0.0
  0
LINE
  8
0
 62
     0
 10
2.61965
 20
94.9233
 30
0.0
 11
2.61965
 21
94.324
 31
0.0
  0
LINE
  8
0
 62
     0
 10
2.61965
 20
94.324
 30
0.0
 11
1.81901
 21
94.324
 31
0.0
  0
LINE
  8
0
 62
     0
 10
1.81901
 20
94.324
 30
0.0
 11
1.81901
 21
81.5248
 31
0.0
  0
LINE
  8
0
 62
     0
 10
1.81901
 20
81.5248
 30
0.0
 11
2.61965
 21
81.5248
 31
0.0
  0
LINE
  8
0
 62
     0
 10
2.61965
 20
81.5248
 30
0.0
 11
2.61965
 21
80.924
 31
0.0
  0
LINE
  8
0
 62
     0
 10
2.61965
 20
80.924
 30
0.0
 11
16.6192
 21
80.924
 31
0.0
  0
LINE
  8
0
 62
     0
 10
16.6192
 20
80.924
 30
0.0
 11
16.6192
 21
81.5248
 31
0.0
  0
LINE
  8
0
 62
     0
 10
16.6192
 20
81.5248
 30
0.0
 11
17.4198
 21
81.5248
 31
0.0
  0
LINE
  8
0
 62
     0
 10
17.4198
 20
81.5248
 30
0.0
 11
17.4198
 21
94.324
 31
0.0
  0
LINE
  8
0
 62
     0
 10
17.4198
 20
94.324
 30
0.0
 11
16.6192
 21
94.324
 31
0.0
  0
LINE
  8
0
 62
     0
 10
16.6192
 20
94.324
 30
0.0
 11
16.6192
 21
94.9233
 31
0.0
  0
LINE
  8
0
 62
     0
 10
16.6192
 20
94.9233
 30
0.0
 11
2.61965
 21
94.9233
 31
0.0
  0
LINE
  8
0
 62
     0
 10
21.6697
 20
94.9233
 30
0.0
 11
21.6697
 21
94.324
 31
0.0
  0
LINE
  8
0
 62
     0
 10
21.6697
 20
94.324
 30
0.0
 11
20.869
 21
94.324
 31
0.0
  0
LINE
  8
0
 62
     0
 10
20.869
 20
94.324
 30
0.0
 11
20.869
 21
81.5248
 31
0.0
  0
LINE
  8
0
 62
     0
 10
20.869
 20
81.5248
 30
0.0
 11
21.6697
 21
81.5248
 31
0.0
  0
LINE
  8
0
 62
     0
 10
21.6697
 20
81.5248
 30
0.0
 11
21.6697
 21
80.924
 31
0.0
  0
LINE
  8
0
 62
     0
 10
21.6697
 20
80.924
 30
0.0
 11
35.669
 21
80.924
 31
0.0
  0
LINE
  8
0
 62
     0
 10
35.669
 20
80.924
 30
0.0
 11
35.669
 21
81.5248
 31
0.0
  0
LINE
  8
0
 62
     0
 10
35.669
 20
81.5248
 30
0.0
 11
36.4698
 21
81.5248
 31
0.0
  0
LINE
  8
0
 62
     0
 10
36.4698
 20
81.5248
 30
0.0
 11
36.4698
 21
94.324
 31
0.0
  0
LINE
  8
0
 62
     0
 10
36.4698
 20
94.324
 30
0.0
 11
35.669
 21
94.324
 31
0.0
  0
LINE
  8
0
 62
     0
 10
35.669
 20
94.324
 30
0.0
 11
35.669
 21
94.9233
 31
0.0
  0
LINE
  8
0
 62
     0
 10
35.669
 20
94.9233
 30
0.0
 11
21.6697
 21
94.9233
 31
0.0
  0
LINE
  8
0
 62
     0
 10
264.557
 20
94.9233
 30
0.0
 11
264.557
 21
94.324
 31
0.0
  0
LINE
  8
0
 62
     0
 10
264.557
 20
94.324
 30
0.0
 11
263.756
 21
94.324
 31
0.0
  0
LINE
  8
0
 62
     0
 10
263.756
 20
94.324
 30
0.0
 11
263.756
 21
81.5248
 31
0.0
  0
LINE
  8
0
 62
     0
 10
263.756
 20
81.5248
 30
0.0
 11
264.557
 21
81.5248
 31
0.0
  0
LINE
  8
0
 62
     0
 10
264.557
 20
81.5248
 30
0.0
 11
264.557
 21
80.924
 31
0.0
  0
LINE
  8
0
 62
     0
 10
264.557
 20
80.924
 30
0.0
 11
278.557
 21
80.924
 31
0.0
  0
LINE
  8
0
 62
     0
 10
278.557
 20
80.924
 30
0.0
 11
278.557
 21
81.5248
 31
0.0
  0
LINE
  8
0
 62
     0
 10
278.557
 20
81.5248
 30
0.0
 11
279.356
 21
81.5248
 31
0.0
  0
LINE
  8
0
 62
     0
 10
279.356
 20
81.5248
 30
0.0
 11
279.356
 21
94.324
 31
0.0
  0
LINE
  8
0
 62
     0
 10
279.356
 20
94.324
 30
0.0
 11
278.557
 21
94.324
 31
0.0
  0
LINE
  8
0
 62
     0
 10
278.557
 20
94.324
 30
0.0
 11
278.557
 21
94.9233
 31
0.0
  0
LINE
  8
0
 62
     0
 10
278.557
 20
94.9233
 30
0.0
 11
264.557
 21
94.9233
 31
0.0
  0
LINE
  8
0
 62
     0
 10
283.607
 20
94.9233
 30
0.0
 11
283.607
 21
94.324
 31
0.0
  0
LINE
  8
0
 62
     0
 10
283.607
 20
94.324
 30
0.0
 11
282.806
 21
94.324
 31
0.0
  0
LINE
  8
0
 62
     0
 10
282.806
 20
94.324
 30
0.0
 11
282.806
 21
81.5248
 31
0.0
  0
LINE
  8
0
 62
     0
 10
282.806
 20
81.5248
 30
0.0
 11
283.607
 21
81.5248
 31
0.0
  0
LINE
  8
0
 62
     0
 10
283.607
 20
81.5248
 30
0.0
 11
283.607
 21
80.924
 31
0.0
  0
LINE
  8
0
 62
     0
 10
283.607
 20
80.924
 30
0.0
 11
297.607
 21
80.924
 31
0.0
  0
LINE
  8
0
 62
     0
 10
297.607
 20
80.924
 30
0.0
 11
297.607
 21
81.5248
 31
0.0
  0
LINE
  8
0
 62
     0
 10
297.607
 20
81.5248
 30
0.0
 11
298.406
 21
81.5248
 31
0.0
  0
LINE
  8
0
 62
     0
 10
298.406
 20
81.5248
 30
0.0
 11
298.406
 21
94.324
 31
0.0
  0
LINE
  8
0
 62
     0
 10
298.406
 20
94.324
 30
0.0
 11
297.607
 21
94.324
 31
0.0
  0
LINE
  8
0
 62
     0
 10
297.607
 20
94.324
 30
0.0
 11
297.607
 21
94.9233
 31
0.0
  0
LINE
  8
0
 62
     0
 10
297.607
 20
94.9233
 30
0.0
 11
283.607
 21
94.9233
 31
0.0
  0
LINE
  8
0
 62
     0
 10
97.8697
 20
99.6858
 30
0.0
 11
97.8697
 21
99.0865
 31
0.0
  0
LINE
  8
0
 62
     0
 10
97.8697
 20
99.0865
 30
0.0
 11
97.0689
 21
99.0865
 31
0.0
  0
LINE
  8
0
 62
     0
 10
97.0689
 20
99.0865
 30
0.0
 11
97.0689
 21
86.2859
 31
0.0
  0
LINE
  8
0
 62
     0
 10
97.0689
 20
86.2859
 30
0.0
 11
97.8697
 21
86.2859
 31
0.0
  0
LINE
  8
0
 62
     0
 10
97.8697
 20
86.2859
 30
0.0
 11
97.8697
 21
85.6865
 31
0.0
  0
LINE
  8
0
 62
     0
 10
97.8697
 20
85.6865
 30
0.0
 11
111.869
 21
85.6865
 31
0.0
  0
LINE
  8
0
 62
     0
 10
111.869
 20
85.6865
 30
0.0
 11
111.869
 21
86.2859
 31
0.0
  0
LINE
  8
0
 62
     0
 10
111.869
 20
86.2859
 30
0.0
 11
112.67
 21
86.2859
 31
0.0
  0
LINE
  8
0
 62
     0
 10
112.67
 20
86.2859
 30
0.0
 11
112.67
 21
99.0865
 31
0.0
  0
LINE
  8
0
 62
     0
 10
112.67
 20
99.0865
 30
0.0
 11
111.869
 21
99.0865
 31
0.0
  0
LINE
  8
0
 62
     0
 10
111.869
 20
99.0865
 30
0.0
 11
111.869
 21
99.6858
 31
0.0
  0
LINE
  8
0
 62
     0
 10
111.869
 20
99.6858
 30
0.0
 11
97.8697
 21
99.6858
 31
0.0
  0
LINE
  8
0
 62
     0
 10
188.357
 20
99.6858
 30
0.0
 11
188.357
 21
99.0865
 31
0.0
  0
LINE
  8
0
 62
     0
 10
188.357
 20
99.0865
 30
0.0
 11
187.556
 21
99.0865
 31
0.0
  0
LINE
  8
0
 62
     0
 10
187.556
 20
99.0865
 30
0.0
 11
187.556
 21
86.2859
 31
0.0
  0
LINE
  8
0
 62
     0
 10
187.556
 20
86.2859
 30
0.0
 11
188.357
 21
86.2859
 31
0.0
  0
LINE
  8
0
 62
     0
 10
188.357
 20
86.2859
 30
0.0
 11
188.357
 21
85.6865
 31
0.0
  0
LINE
  8
0
 62
     0
 10
188.357
 20
85.6865
 30
0.0
 11
202.357
 21
85.6865
 31
0.0
  0
LINE
  8
0
 62
     0
 10
202.357
 20
85.6865
 30
0.0
 11
202.357
 21
86.2859
 31
0.0
  0
LINE
  8
0
 62
     0
 10
202.357
 20
86.2859
 30
0.0
 11
203.156
 21
86.2859
 31
0.0
  0
LINE
  8
0
 62
     0
 10
203.156
 20
86.2859
 30
0.0
 11
203.156
 21
99.0865
 31
0.0
  0
LINE
  8
0
 62
     0
 10
203.156
 20
99.0865
 30
0.0
 11
202.357
 21
99.0865
 31
0.0
  0
LINE
  8
0
 62
     0
 10
202.357
 20
99.0865
 30
0.0
 11
202.357
 21
99.6858
 31
0.0
  0
LINE
  8
0
 62
     0
 10
202.357
 20
99.6858
 30
0.0
 11
188.357
 21
99.6858
 31
0.0
  0
LINE
  8
0
 62
     0
 10
40.7197
 20
104.448
 30
0.0
 11
40.7197
 21
103.849
 31
0.0
  0
LINE
  8
0
 62
     0
 10
40.7197
 20
103.849
 30
0.0
 11
39.9189
 21
103.849
 31
0.0
  0
LINE
  8
0
 62
     0
 10
39.9189
 20
103.849
 30
0.0
 11
39.9189
 21
91.0498
 31
0.0
  0
LINE
  8
0
 62
     0
 10
39.9189
 20
91.0498
 30
0.0
 11
40.7197
 21
91.0498
 31
0.0
  0
LINE
  8
0
 62
     0
 10
40.7197
 20
91.0498
 30
0.0
 11
40.7197
 21
90.449
 31
0.0
  0
LINE
  8
0
 62
     0
 10
40.7197
 20
90.449
 30
0.0
 11
54.719
 21
90.449
 31
0.0
  0
LINE
  8
0
 62
     0
 10
54.719
 20
90.449
 30
0.0
 11
54.719
 21
91.0498
 31
0.0
  0
LINE
  8
0
 62
     0
 10
54.719
 20
91.0498
 30
0.0
 11
55.5198
 21
91.0498
 31
0.0
  0
LINE
  8
0
 62
     0
 10
55.5198
 20
91.0498
 30
0.0
 11
55.5198
 21
103.849
 31
0.0
  0
LINE
  8
0
 62
     0
 10
55.5198
 20
103.849
 30
0.0
 11
54.719
 21
103.849
 31
0.0
  0
LINE
  8
0
 62
     0
 10
54.719
 20
103.849
 30
0.0
 11
54.719
 21
104.448
 31
0.0
  0
LINE
  8
0
 62
     0
 10
54.719
 20
104.448
 30
0.0
 11
40.7197
 21
104.448
 31
0.0
  0
LINE
  8
0
 62
     0
 10
78.8197
 20
104.448
 30
0.0
 11
78.8197
 21
103.849
 31
0.0
  0
LINE
  8
0
 62
     0
 10
78.8197
 20
103.849
 30
0.0
 11
78.0189
 21
103.849
 31
0.0
  0
LINE
  8
0
 62
     0
 10
78.0189
 20
103.849
 30
0.0
 11
78.0189
 21
91.0498
 31
0.0
  0
LINE
  8
0
 62
     0
 10
78.0189
 20
91.0498
 30
0.0
 11
78.8197
 21
91.0498
 31
0.0
  0
LINE
  8
0
 62
     0
 10
78.8197
 20
91.0498
 30
0.0
 11
78.8197
 21
90.449
 31
0.0
  0
LINE
  8
0
 62
     0
 10
78.8197
 20
90.449
 30
0.0
 11
92.819
 21
90.449
 31
0.0
  0
LINE
  8
0
 62
     0
 10
92.819
 20
90.449
 30
0.0
 11
92.819
 21
91.0498
 31
0.0
  0
LINE
  8
0
 62
     0
 10
92.819
 20
91.0498
 30
0.0
 11
93.6184
 21
91.0498
 31
0.0
  0
LINE
  8
0
 62
     0
 10
93.6184
 20
91.0498
 30
0.0
 11
93.6184
 21
103.849
 31
0.0
  0
LINE
  8
0
 62
     0
 10
93.6184
 20
103.849
 30
0.0
 11
92.819
 21
103.849
 31
0.0
  0
LINE
  8
0
 62
     0
 10
92.819
 20
103.849
 30
0.0
 11
92.819
 21
104.448
 31
0.0
  0
LINE
  8
0
 62
     0
 10
92.819
 20
104.448
 30
0.0
 11
78.8197
 21
104.448
 31
0.0
  0
LINE
  8
0
 62
     0
 10
207.407
 20
104.448
 30
0.0
 11
207.407
 21
103.849
 31
0.0
  0
LINE
  8
0
 62
     0
 10
207.407
 20
103.849
 30
0.0
 11
206.606
 21
103.849
 31
0.0
  0
LINE
  8
0
 62
     0
 10
206.606
 20
103.849
 30
0.0
 11
206.606
 21
91.0498
 31
0.0
  0
LINE
  8
0
 62
     0
 10
206.606
 20
91.0498
 30
0.0
 11
207.407
 21
91.0498
 31
0.0
  0
LINE
  8
0
 62
     0
 10
207.407
 20
91.0498
 30
0.0
 11
207.407
 21
90.449
 31
0.0
  0
LINE
  8
0
 62
     0
 10
207.407
 20
90.449
 30
0.0
 11
221.407
 21
90.449
 31
0.0
  0
LINE
  8
0
 62
     0
 10
221.407
 20
90.449
 30
0.0
 11
221.407
 21
91.0498
 31
0.0
  0
LINE
  8
0
 62
     0
 10
221.407
 20
91.0498
 30
0.0
 11
222.206
 21
91.0498
 31
0.0
  0
LINE
  8
0
 62
     0
 10
222.206
 20
91.0498
 30
0.0
 11
222.206
 21
103.849
 31
0.0
  0
LINE
  8
0
 62
     0
 10
222.206
 20
103.849
 30
0.0
 11
221.407
 21
103.849
 31
0.0
  0
LINE
  8
0
 62
     0
 10
221.407
 20
103.849
 30
0.0
 11
221.407
 21
104.448
 31
0.0
  0
LINE
  8
0
 62
     0
 10
221.407
 20
104.448
 30
0.0
 11
207.407
 21
104.448
 31
0.0
  0
LINE
  8
0
 62
     0
 10
245.507
 20
104.448
 30
0.0
 11
245.507
 21
103.849
 31
0.0
  0
LINE
  8
0
 62
     0
 10
245.507
 20
103.849
 30
0.0
 11
244.706
 21
103.849
 31
0.0
  0
LINE
  8
0
 62
     0
 10
244.706
 20
103.849
 30
0.0
 11
244.706
 21
91.0498
 31
0.0
  0
LINE
  8
0
 62
     0
 10
244.706
 20
91.0498
 30
0.0
 11
245.507
 21
91.0498
 31
0.0
  0
LINE
  8
0
 62
     0
 10
245.507
 20
91.0498
 30
0.0
 11
245.507
 21
90.449
 31
0.0
  0
LINE
  8
0
 62
     0
 10
245.507
 20
90.449
 30
0.0
 11
259.507
 21
90.449
 31
0.0
  0
LINE
  8
0
 62
     0
 10
259.507
 20
90.449
 30
0.0
 11
259.507
 21
91.0498
 31
0.0
  0
LINE
  8
0
 62
     0
 10
259.507
 20
91.0498
 30
0.0
 11
260.306
 21
91.0498
 31
0.0
  0
LINE
  8
0
 62
     0
 10
260.306
 20
91.0498
 30
0.0
 11
260.306
 21
103.849
 31
0.0
  0
LINE
  8
0
 62
     0
 10
260.306
 20
103.849
 30
0.0
 11
259.507
 21
103.849
 31
0.0
  0
LINE
  8
0
 62
     0
 10
259.507
 20
103.849
 30
0.0
 11
259.507
 21
104.448
 31
0.0
  0
LINE
  8
0
 62
     0
 10
259.507
 20
104.448
 30
0.0
 11
245.507
 21
104.448
 31
0.0
  0
LINE
  8
0
 62
     0
 10
59.7697
 20
109.211
 30
0.0
 11
59.7697
 21
108.611
 31
0.0
  0
LINE
  8
0
 62
     0
 10
59.7697
 20
108.611
 30
0.0
 11
58.9689
 21
108.611
 31
0.0
  0
LINE
  8
0
 62
     0
 10
58.9689
 20
108.611
 30
0.0
 11
58.9689
 21
95.8109
 31
0.0
  0
LINE
  8
0
 62
     0
 10
58.9689
 20
95.8109
 30
0.0
 11
59.7697
 21
95.8109
 31
0.0
  0
LINE
  8
0
 62
     0
 10
59.7697
 20
95.8109
 30
0.0
 11
59.7697
 21
95.2115
 31
0.0
  0
LINE
  8
0
 62
     0
 10
59.7697
 20
95.2115
 30
0.0
 11
73.769
 21
95.2115
 31
0.0
  0
LINE
  8
0
 62
     0
 10
73.769
 20
95.2115
 30
0.0
 11
73.769
 21
95.8109
 31
0.0
  0
LINE
  8
0
 62
     0
 10
73.769
 20
95.8109
 30
0.0
 11
74.5698
 21
95.8109
 31
0.0
  0
LINE
  8
0
 62
     0
 10
74.5698
 20
95.8109
 30
0.0
 11
74.5698
 21
108.611
 31
0.0
  0
LINE
  8
0
 62
     0
 10
74.5698
 20
108.611
 30
0.0
 11
73.769
 21
108.611
 31
0.0
  0
LINE
  8
0
 62
     0
 10
73.769
 20
108.611
 30
0.0
 11
73.769
 21
109.211
 31
0.0
  0
LINE
  8
0
 62
     0
 10
73.769
 20
109.211
 30
0.0
 11
59.7697
 21
109.211
 31
0.0
  0
LINE
  8
0
 62
     0
 10
226.457
 20
109.211
 30
0.0
 11
226.457
 21
108.611
 31
0.0
  0
LINE
  8
0
 62
     0
 10
226.457
 20
108.611
 30
0.0
 11
225.656
 21
108.611
 31
0.0
  0
LINE
  8
0
 62
     0
 10
225.656
 20
108.611
 30
0.0
 11
225.656
 21
95.8109
 31
0.0
  0
LINE
  8
0
 62
     0
 10
225.656
 20
95.8109
 30
0.0
 11
226.457
 21
95.8109
 31
0.0
  0
LINE
  8
0
 62
     0
 10
226.457
 20
95.8109
 30
0.0
 11
226.457
 21
95.2115
 31
0.0
  0
LINE
  8
0
 62
     0
 10
226.457
 20
95.2115
 30
0.0
 11
240.457
 21
95.2115
 31
0.0
  0
LINE
  8
0
 62
     0
 10
240.457
 20
95.2115
 30
0.0
 11
240.457
 21
95.8109
 31
0.0
  0
LINE
  8
0
 62
     0
 10
240.457
 20
95.8109
 30
0.0
 11
241.256
 21
95.8109
 31
0.0
  0
LINE
  8
0
 62
     0
 10
241.256
 20
95.8109
 30
0.0
 11
241.256
 21
108.611
 31
0.0
  0
LINE
  8
0
 62
     0
 10
241.256
 20
108.611
 30
0.0
 11
240.457
 21
108.611
 31
0.0
  0
LINE
  8
0
 62
     0
 10
240.457
 20
108.611
 30
0.0
 11
240.457
 21
109.211
 31
0.0
  0
LINE
  8
0
 62
     0
 10
240.457
 20
109.211
 30
0.0
 11
226.457
 21
109.211
 31
0.0
  0
ENDSEC
  0
EOF
