0
SECTION
2
HEADER
9
$INSUNITS
70
4
0
ENDSEC
0
SECTION
2
TABLES
0
TABLE
2
LTYPE
0
LTYPE
72
65
70
64
2
CONTINUOUS
3
______
73
0
40
0
0
ENDTAB
0
TABLE
2
LAYER
0
ENDTAB
0
ENDSEC
0
SECTION
2
ENTITIES
0
LINE
8
0
10
-6.363961
20
11.0227038
11
11.0227038
21
6.363961
0
LINE
8
0
10
11.0227038
20
6.363961
11
6.363961
21
-11.0227038
0
LINE
8
0
10
6.363961
20
-11.0227038
11
-11.0227038
21
-6.363961
0
LINE
8
0
10
-11.0227038
20
-6.363961
11
-6.363961
21
11.0227038
0
LINE
8
0
10
-0.6440601
20
32.3696645
11
16.7426047
21
27.7109217
0
LINE
8
0
10
16.7426047
20
27.7109217
11
12.0838619
21
10.3242569
0
LINE
8
0
10
12.0838619
20
10.3242569
11
-5.3028029
21
14.9829997
0
LINE
8
0
10
-5.3028029
20
14.9829997
11
-0.6440601
21
32.3696645
0
LINE
8
0
10
5.0758408
20
53.7166253
11
22.4625056
21
49.0578825
0
LINE
8
0
10
22.4625056
20
49.0578825
11
17.8037628
21
31.6712177
0
LINE
8
0
10
17.8037628
20
31.6712177
11
0.417098
21
36.3299605
0
LINE
8
0
10
0.417098
20
36.3299605
11
5.0758408
21
53.7166253
0
LINE
8
0
10
21.5743843
20
15.5159305
11
38.4888515
21
9.3595679
0
LINE
8
0
10
38.4888515
20
9.3595679
11
32.3324889
21
-7.5548993
0
LINE
8
0
10
32.3324889
20
-7.5548993
11
15.4180217
21
-1.3985367
0
LINE
8
0
10
15.4180217
20
-1.3985367
11
21.5743843
21
15.5159305
0
LINE
8
0
10
29.1330295
20
36.2831374
11
46.0474967
21
30.1267748
0
LINE
8
0
10
46.0474967
20
30.1267748
11
39.8911341
21
13.2123076
0
LINE
8
0
10
39.8911341
20
13.2123076
11
22.9766669
21
19.3686702
0
LINE
8
0
10
22.9766669
20
19.3686702
11
29.1330295
21
36.2831374
0
LINE
8
0
10
36.6916747
20
57.0503443
11
53.6061419
21
50.8939817
0
LINE
8
0
10
53.6061419
20
50.8939817
11
47.4497793
21
33.9795145
0
LINE
8
0
10
47.4497793
20
33.9795145
11
30.5353121
21
40.1358771
0
LINE
8
0
10
30.5353121
20
40.1358771
11
36.6916747
21
57.0503443
0
LINE
8
0
10
43.9577228
20
12.6899503
11
60.87219
21
6.5335877
0
LINE
8
0
10
60.87219
20
6.5335877
11
54.7158274
21
-10.3808795
0
LINE
8
0
10
54.7158274
20
-10.3808795
11
37.8013602
21
-4.2245169
0
LINE
8
0
10
37.8013602
20
-4.2245169
11
43.9577228
21
12.6899503
0
LINE
8
0
10
51.5163679
20
33.4571572
11
68.4308351
21
27.3007946
0
LINE
8
0
10
68.4308351
20
27.3007946
11
62.2744725
21
10.3863274
0
LINE
8
0
10
62.2744725
20
10.3863274
11
45.3600053
21
16.54269
0
LINE
8
0
10
45.3600053
20
16.54269
11
51.5163679
21
33.4571572
0
LINE
8
0
10
59.0750131
20
54.2243642
11
75.9894803
21
48.0680016
0
LINE
8
0
10
75.9894803
20
48.0680016
11
69.8331177
21
31.1535344
0
LINE
8
0
10
69.8331177
20
31.1535344
11
52.9186505
21
37.309897
0
LINE
8
0
10
52.9186505
20
37.309897
11
59.0750131
21
54.2243642
0
LINE
8
0
10
62.5788396
20
-0.4726485
11
79.4933068
21
-6.6290111
0
LINE
8
0
10
79.4933068
20
-6.6290111
11
73.3369442
21
-23.5434783
0
LINE
8
0
10
73.3369442
20
-23.5434783
11
56.422477
21
-17.3871157
0
LINE
8
0
10
56.422477
20
-17.3871157
11
62.5788396
21
-0.4726485
0
LINE
8
0
10
70.1374848
20
20.2945585
11
87.051952
21
14.1381959
0
LINE
8
0
10
87.051952
20
14.1381959
11
80.8955894
21
-2.7762713
0
LINE
8
0
10
80.8955894
20
-2.7762713
11
63.9811222
21
3.3800913
0
LINE
8
0
10
63.9811222
20
3.3800913
11
70.1374848
21
20.2945585
0
LINE
8
0
10
77.6961299
20
41.0617654
11
94.6105971
21
34.9054028
0
LINE
8
0
10
94.6105971
20
34.9054028
11
88.4542345
21
17.9909356
0
LINE
8
0
10
88.4542345
20
17.9909356
11
71.5397673
21
24.1472982
0
LINE
8
0
10
71.5397673
20
24.1472982
11
77.6961299
21
41.0617654
0
LINE
8
0
10
82.5680368
20
-9.8764769
11
99.482504
21
-16.0328395
0
LINE
8
0
10
99.482504
20
-16.0328395
11
93.3261414
21
-32.9473067
0
LINE
8
0
10
93.3261414
20
-32.9473067
11
76.4116742
21
-26.7909441
0
LINE
8
0
10
76.4116742
20
-26.7909441
11
82.5680368
21
-9.8764769
0
LINE
8
0
10
90.126682
20
10.89073
11
107.0411492
21
4.7343674
0
LINE
8
0
10
107.0411492
20
4.7343674
11
100.8847866
21
-12.1800998
0
LINE
8
0
10
100.8847866
20
-12.1800998
11
83.9703194
21
-6.0237372
0
LINE
8
0
10
83.9703194
20
-6.0237372
11
90.126682
21
10.89073
0
LINE
8
0
10
97.6853272
20
31.6579369
11
114.5997944
21
25.5015743
0
LINE
8
0
10
114.5997944
20
25.5015743
11
108.4434318
21
8.5871071
0
LINE
8
0
10
108.4434318
20
8.5871071
11
91.5289646
21
14.7434697
0
LINE
8
0
10
91.5289646
20
14.7434697
11
97.6853272
21
31.6579369
0
LINE
8
0
10
41.1726607
20
-20.0303412
11
58.8992003
21
-23.1560084
0
LINE
8
0
10
58.8992003
20
-23.1560084
11
55.7735331
21
-40.882548
0
LINE
8
0
10
55.7735331
20
-40.882548
11
38.0469935
21
-37.7568808
0
LINE
8
0
10
38.0469935
20
-37.7568808
11
41.1726607
21
-20.0303412
0
LINE
8
0
10
68.842981
20
-27.8019705
11
83.5877178
21
-38.1263463
0
LINE
8
0
10
83.5877178
20
-38.1263463
11
73.263342
21
-52.8710831
0
LINE
8
0
10
73.263342
20
-52.8710831
11
58.5186052
21
-42.5467073
0
LINE
8
0
10
58.5186052
20
-42.5467073
11
68.842981
21
-27.8019705
0
LINE
8
0
10
91.3544672
20
-45.8814311
11
100.3544672
21
-61.4698883
0
LINE
8
0
10
100.3544672
20
-61.4698883
11
84.76601
21
-70.4698883
0
LINE
8
0
10
84.76601
20
-70.4698883
11
75.76601
21
-54.8814311
0
LINE
8
0
10
75.76601
20
-54.8814311
11
91.3544672
21
-45.8814311
0
LINE
8
0
10
255.417098
20
6.363961
11
272.8037628
21
11.0227038
0
LINE
8
0
10
272.8037628
20
11.0227038
11
277.4625056
21
-6.363961
0
LINE
8
0
10
277.4625056
20
-6.363961
11
260.0758408
21
-11.0227038
0
LINE
8
0
10
260.0758408
20
-11.0227038
11
255.417098
21
6.363961
0
LINE
8
0
10
249.6971971
20
27.7109217
11
267.0838619
21
32.3696645
0
LINE
8
0
10
267.0838619
20
32.3696645
11
271.7426047
21
14.9829997
0
LINE
8
0
10
271.7426047
20
14.9829997
11
254.3559399
21
10.3242569
0
LINE
8
0
10
254.3559399
20
10.3242569
11
249.6971971
21
27.7109217
0
LINE
8
0
10
243.9772962
20
49.0578825
11
261.363961
21
53.7166253
0
LINE
8
0
10
261.363961
20
53.7166253
11
266.0227038
21
36.3299605
0
LINE
8
0
10
266.0227038
20
36.3299605
11
248.636039
21
31.6712177
0
LINE
8
0
10
248.636039
20
31.6712177
11
243.9772962
21
49.0578825
0
LINE
8
0
10
227.9509503
20
9.3595679
11
244.8654175
21
15.5159305
0
LINE
8
0
10
244.8654175
20
15.5159305
11
251.0217801
21
-1.3985367
0
LINE
8
0
10
251.0217801
20
-1.3985367
11
234.1073129
21
-7.5548993
0
LINE
8
0
10
234.1073129
20
-7.5548993
11
227.9509503
21
9.3595679
0
LINE
8
0
10
220.3923051
20
30.1267748
11
237.3067723
21
36.2831374
0
LINE
8
0
10
237.3067723
20
36.2831374
11
243.4631349
21
19.3686702
0
LINE
8
0
10
243.4631349
20
19.3686702
11
226.5486677
21
13.2123076
0
LINE
8
0
10
226.5486677
20
13.2123076
11
220.3923051
21
30.1267748
0
LINE
8
0
10
212.8336599
20
50.8939817
11
229.7481271
21
57.0503443
0
LINE
8
0
10
229.7481271
20
57.0503443
11
235.9044897
21
40.1358771
0
LINE
8
0
10
235.9044897
20
40.1358771
11
218.9900225
21
33.9795145
0
LINE
8
0
10
218.9900225
20
33.9795145
11
212.8336599
21
50.8939817
0
LINE
8
0
10
205.5676118
20
6.5335877
11
222.482079
21
12.6899503
0
LINE
8
0
10
222.482079
20
12.6899503
11
228.6384416
21
-4.2245169
0
LINE
8
0
10
228.6384416
20
-4.2245169
11
211.7239744
21
-10.3808795
0
LINE
8
0
10
211.7239744
20
-10.3808795
11
205.5676118
21
6.5335877
0
LINE
8
0
10
198.0089667
20
27.3007946
11
214.9234339
21
33.4571572
0
LINE
8
0
10
214.9234339
20
33.4571572
11
221.0797965
21
16.54269
0
LINE
8
0
10
221.0797965
20
16.54269
11
204.1653293
21
10.3863274
0
LINE
8
0
10
204.1653293
20
10.3863274
11
198.0089667
21
27.3007946
0
LINE
8
0
10
190.4503215
20
48.0680016
11
207.3647887
21
54.2243642
0
LINE
8
0
10
207.3647887
20
54.2243642
11
213.5211513
21
37.309897
0
LINE
8
0
10
213.5211513
20
37.309897
11
196.6066841
21
31.1535344
0
LINE
8
0
10
196.6066841
20
31.1535344
11
190.4503215
21
48.0680016
0
LINE
8
0
10
186.946495
20
-6.6290111
11
203.8609622
21
-0.4726485
0
LINE
8
0
10
203.8609622
20
-0.4726485
11
210.0173248
21
-17.3871157
0
LINE
8
0
10
210.0173248
20
-17.3871157
11
193.1028576
21
-23.5434783
0
LINE
8
0
10
193.1028576
20
-23.5434783
11
186.946495
21
-6.6290111
0
LINE
8
0
10
179.3878498
20
14.1381959
11
196.302317
21
20.2945585
0
LINE
8
0
10
196.302317
20
20.2945585
11
202.4586796
21
3.3800913
0
LINE
8
0
10
202.4586796
20
3.3800913
11
185.5442124
21
-2.7762713
0
LINE
8
0
10
185.5442124
20
-2.7762713
11
179.3878498
21
14.1381959
0
LINE
8
0
10
171.8292047
20
34.9054028
11
188.7436719
21
41.0617654
0
LINE
8
0
10
188.7436719
20
41.0617654
11
194.9000345
21
24.1472982
0
LINE
8
0
10
194.9000345
20
24.1472982
11
177.9855673
21
17.9909356
0
LINE
8
0
10
177.9855673
20
17.9909356
11
171.8292047
21
34.9054028
0
LINE
8
0
10
166.9572978
20
-16.0328395
11
183.871765
21
-9.8764769
0
LINE
8
0
10
183.871765
20
-9.8764769
11
190.0281276
21
-26.7909441
0
LINE
8
0
10
190.0281276
20
-26.7909441
11
173.1136604
21
-32.9473067
0
LINE
8
0
10
173.1136604
20
-32.9473067
11
166.9572978
21
-16.0328395
0
LINE
8
0
10
159.3986526
20
4.7343674
11
176.3131198
21
10.89073
0
LINE
8
0
10
176.3131198
20
10.89073
11
182.4694824
21
-6.0237372
0
LINE
8
0
10
182.4694824
20
-6.0237372
11
165.5550152
21
-12.1800998
0
LINE
8
0
10
165.5550152
20
-12.1800998
11
159.3986526
21
4.7343674
0
LINE
8
0
10
151.8400074
20
25.5015743
11
168.7544746
21
31.6579369
0
LINE
8
0
10
168.7544746
20
31.6579369
11
174.9108372
21
14.7434697
0
LINE
8
0
10
174.9108372
20
14.7434697
11
157.99637
21
8.5871071
0
LINE
8
0
10
157.99637
20
8.5871071
11
151.8400074
21
25.5015743
0
LINE
8
0
10
207.5406015
20
-23.1560084
11
225.2671411
21
-20.0303412
0
LINE
8
0
10
225.2671411
20
-20.0303412
11
228.3928083
21
-37.7568808
0
LINE
8
0
10
228.3928083
20
-37.7568808
11
210.6662687
21
-40.882548
0
LINE
8
0
10
210.6662687
20
-40.882548
11
207.5406015
21
-23.1560084
0
LINE
8
0
10
182.852084
20
-38.1263463
11
197.5968208
21
-27.8019705
0
LINE
8
0
10
197.5968208
20
-27.8019705
11
207.9211966
21
-42.5467073
0
LINE
8
0
10
207.9211966
20
-42.5467073
11
193.1764598
21
-52.8710831
0
LINE
8
0
10
193.1764598
20
-52.8710831
11
182.852084
21
-38.1263463
0
LINE
8
0
10
166.0853346
20
-61.4698883
11
175.0853346
21
-45.8814311
0
LINE
8
0
10
175.0853346
20
-45.8814311
11
190.6737918
21
-54.8814311
0
LINE
8
0
10
190.6737918
20
-54.8814311
11
181.6737918
21
-70.4698883
0
LINE
8
0
10
181.6737918
20
-70.4698883
11
166.0853346
21
-61.4698883
0
ENDSEC
0
EOF